<svg width="404" height="388" viewBox="0 0 404 388" fill="none" xmlns="http://www.w3.org/2000/svg">
<path d="M403.841 137.054C403.64 140.836 403.471 137.987 403.471 130.698C403.471 123.409 403.64 120.315 403.841 123.812C404.053 127.308 404.053 133.272 403.841 137.054Z" fill="#FDBD49"/>
<path d="M12.3022 240.348C12.1329 252.002 11.9953 242.7 11.9953 219.689C11.9953 196.679 12.1329 187.144 12.3022 198.501C12.4715 209.858 12.4715 228.694 12.3022 240.348Z" fill="#FDBD49"/>
<path d="M176.065 387.873C162.678 388.042 140.297 388.042 126.328 387.873C112.359 387.703 123.312 387.566 150.667 387.566C178.023 387.566 189.452 387.703 176.065 387.873Z" fill="#FDBD49"/>
<path d="M285.064 387.873C269.931 388.042 244.692 388.042 228.977 387.873C213.262 387.703 225.644 387.576 256.492 387.576C287.339 387.576 300.197 387.703 285.064 387.873Z" fill="#FDBD49"/>
<path d="M135.852 4.45684C143.418 3.27028 159.366 1.71293 171.303 0.981925C183.24 0.250923 203.474 -0.162252 216.278 0.0602268C229.083 0.282706 248.608 0.833606 259.666 1.28916C271.55 1.7659 280.747 2.62403 282.154 3.36563C283.466 4.05425 285.202 6.1731 286.017 8.06947C287.35 11.1736 287.276 12.0423 285.308 16.8097C283.784 20.5071 283.117 24.5117 283.085 30.0525C283.064 35.1377 283.763 40.0958 285.032 43.825C286.503 48.1263 288.705 51.3575 293.445 56.1461C298.176 60.9135 301.499 63.2337 305.964 64.8864C309.309 66.1259 313.954 67.1323 316.282 67.1323C318.61 67.1323 321.584 67.6832 322.896 68.3507C324.209 69.0181 325.627 70.0881 326.05 70.7344C326.484 71.37 326.844 75.3535 326.844 79.5806C326.854 84.5175 327.595 89.2425 328.918 92.8234C330.061 95.9275 333.214 100.886 336.061 104.043C339.109 107.433 343.49 110.834 346.971 112.518C352.019 114.955 354.136 115.326 362.908 115.336C372.56 115.336 373.396 115.145 380.634 111.363C385.206 108.98 389.724 107.39 391.947 107.39C394.55 107.39 396.677 108.312 402.529 113.577V328.28L399.651 336.756C398.063 341.417 394.963 348.272 392.772 351.99C390.571 355.698 385.417 361.896 381.311 365.763C376.316 370.467 370.909 374.238 364.909 377.215C359.988 379.662 352.866 382.449 349.088 383.423C345.31 384.398 340.781 385.383 339.035 385.616C337.288 385.849 334.431 386.284 332.685 386.58C330.939 386.877 275.582 387.11 209.664 387.099C132.085 387.089 86.9294 386.686 81.617 385.966C77.1089 385.351 69.8494 383.889 65.4789 382.713C61.1189 381.538 53.7324 378.603 49.0761 376.198C43.0759 373.105 38.2609 369.492 32.5781 363.824C26.3662 357.647 23.5301 353.77 20.1226 346.82C17.6886 341.862 14.916 334.245 13.953 329.869C12.408 322.877 12.1858 312.092 12.1223 239.818C12.0376 158.094 12.027 157.692 9.78355 153.475C8.53482 151.145 6.27018 145.307 4.7569 140.497C3.23303 135.688 1.41285 127.35 0.724993 121.958C-0.33325 113.694 -0.269755 110.495 1.15887 101.564C2.10071 95.7368 4.46059 86.9118 6.40775 81.9643C8.35492 77.0168 12.154 69.622 14.8525 65.5432C17.5405 61.4644 23.0116 54.7901 27.0012 50.7007C30.9907 46.6219 37.5942 40.7951 41.6684 37.7757C45.7426 34.7458 54.7906 29.438 61.775 25.9843C68.7594 22.5412 79.0032 18.2399 84.5272 16.4495C90.0512 14.6485 100.771 11.7033 108.338 9.89168C115.904 8.08006 128.286 5.6328 135.852 4.45684Z" fill="#7A3818"/>
<path d="M403.852 272.661C403.693 296.254 403.566 276.708 403.566 229.224C403.566 181.741 403.693 162.427 403.852 186.317C404.011 210.207 404.011 249.057 403.852 272.661Z" fill="#FCE9C5" fill-opacity="0.99"/>
<path d="M366.305 272.661C366.147 256.642 365.903 220.05 365.755 191.35C365.607 162.65 365.85 139.173 366.284 139.173C366.718 139.173 366.962 175.766 366.835 220.484C366.697 265.202 366.454 288.69 366.305 272.661Z" fill="#FDBD49"/>
<path d="M46.1659 264.715C46.0072 283.943 45.8696 268.688 45.8696 230.813C45.8696 192.939 46.0072 177.206 46.1659 195.852C46.3247 214.498 46.3247 245.486 46.1659 264.715Z" fill="#FDBD49"/>
<path d="M108.867 348.653C106.824 348.875 103.015 348.875 100.401 348.653C97.7764 348.431 99.4484 348.25 104.105 348.24C108.761 348.24 110.899 348.42 108.867 348.653Z" fill="#FDBD49"/>
<path d="M150.138 348.674C144.604 348.865 136.032 348.865 131.09 348.664C126.137 348.473 130.667 348.314 141.143 348.314C151.62 348.314 155.662 348.473 150.138 348.674Z" fill="#FDBD49"/>
<path d="M190.351 348.674C184.817 348.865 176.012 348.865 170.774 348.674C165.536 348.473 170.054 348.325 180.827 348.325C191.59 348.325 195.875 348.473 190.351 348.674Z" fill="#FDBD49"/>
<path d="M210.987 348.653C208.659 348.875 205.326 348.875 203.579 348.642C201.833 348.409 203.738 348.219 207.812 348.229C211.887 348.229 213.315 348.42 210.987 348.653Z" fill="#FDBD49"/>
<path d="M231.623 348.664C228.416 348.875 223.422 348.875 220.511 348.664C217.601 348.452 220.215 348.272 226.332 348.272C232.438 348.272 234.819 348.452 231.623 348.664Z" fill="#FDBD49"/>
<path d="M250.671 348.653C248.629 348.875 244.819 348.875 242.205 348.653C239.581 348.431 241.253 348.25 245.909 348.24C250.565 348.24 252.703 348.42 250.671 348.653Z" fill="#FDBD49"/>
<path d="M298.292 348.674C291.011 348.854 279.35 348.854 272.365 348.674C265.381 348.483 271.328 348.335 285.593 348.335C299.848 348.335 305.562 348.483 298.292 348.674Z" fill="#FDBD49"/>
<path d="M143.789 24.2786C149.905 23.3252 159.662 22.128 165.483 21.6089C171.303 21.0898 189.632 20.8673 206.225 21.111C222.818 21.344 238.946 21.9055 247.782 23.1663L247.105 31.3768C246.745 35.8899 246.936 42.808 247.549 46.7384C248.174 50.7854 250.237 57.1102 252.29 61.3055C254.587 65.9776 258.195 70.9569 262.037 74.7708C265.391 78.0868 270.99 82.2609 274.482 84.0195C277.974 85.7888 284.524 88.0771 297.266 90.9694L297.245 95.7368C297.223 98.3535 297.975 103.121 298.906 106.331C299.848 109.541 301.943 114.542 303.573 117.455C305.203 120.368 309.33 125.39 312.737 128.621C317.446 133.081 321.076 135.349 327.923 138.093C336.22 141.43 337.818 141.705 348.559 141.737C354.961 141.748 361.512 141.419 366.02 140.233L365.755 224.722C365.491 308.935 365.48 309.232 363.162 315.037C361.893 318.237 359.226 323.248 357.257 326.161C355.289 329.075 350.855 333.736 347.416 336.523C343.966 339.309 338.654 342.53 335.595 343.674C332.537 344.818 328.494 346.036 326.6 346.365C324.706 346.704 322.801 347.18 322.367 347.424C321.933 347.678 270.259 347.901 207.548 347.922C124.074 347.964 91.9666 347.636 87.7019 346.725C84.4955 346.047 79.3841 344.352 76.3258 342.974C73.2675 341.597 70.77 340.707 70.77 340.993C70.77 341.279 69.4578 340.453 67.8599 339.139C66.2619 337.836 62.6851 334.499 59.9231 331.723C57.161 328.958 54.8964 325.971 54.8964 325.102C54.8964 324.233 54.4202 323.513 53.8382 323.513C53.2561 323.513 52.0709 321.85 51.1926 319.805C50.3142 317.76 48.875 313.353 47.9861 310.005C46.621 304.835 46.3776 293.446 46.3987 234.786C46.4199 196.763 46.0918 163.635 45.6897 161.156C45.277 158.677 43.3827 154.503 41.4779 151.886C39.5625 149.269 36.6946 144.968 35.0967 142.351C33.4882 139.735 31.0542 134.247 29.6679 130.168C28.2922 126.089 26.9059 118.938 26.5778 114.277C26.2498 109.403 26.5567 102.877 27.2974 98.915C28.0065 95.1223 30.4087 88.2149 32.631 83.5534C35.4036 77.7478 38.991 72.5778 44.0388 67.1323C48.0813 62.7569 55.161 56.5911 59.7643 53.4128C64.3571 50.2345 72.8865 45.393 78.7069 42.6491C84.5272 39.9157 93.099 36.3773 97.7552 34.7987C102.411 33.2308 112.168 30.6034 119.449 28.9613C126.719 27.3298 137.672 25.2215 143.789 24.2786Z" fill="#FCE9C5" fill-opacity="0.99"/>
<path d="M148.551 44.4501C155.535 43.5178 163.155 42.5961 165.483 42.3948C167.811 42.2041 182.573 42.0876 226.861 42.2359L227.517 49.1221C227.877 52.9149 228.998 58.6252 230.025 61.8352C231.041 65.0453 233.369 70.5225 235.189 74.0186C237.094 77.663 241.888 83.8077 246.438 88.4268C251.073 93.12 257.243 98.0569 261.254 100.282C265.032 102.369 270.365 104.71 273.085 105.473L273.092 105.475C278.037 106.861 278.049 106.864 279.371 113.217C280.101 116.713 282.461 123.155 284.62 127.52C287.159 132.668 290.906 137.912 295.266 142.394C298.969 146.208 305.329 151.304 309.404 153.719C313.478 156.145 320.388 159.09 324.748 160.277C329.119 161.463 334.474 162.692 340.622 163.54V230.284C340.622 294.22 340.537 297.26 338.527 302.589C337.373 305.651 334.992 309.942 333.235 312.124C331.278 314.55 327.267 317.432 315.753 322.983L95.6388 322.273L89.4057 319.445C85.4585 317.665 81.6594 314.879 79.0561 311.859C76.5904 308.999 74.1353 304.549 72.9289 300.735C71.0558 294.781 70.9182 290.088 70.8441 226.84C70.8018 182.366 70.3785 157.586 69.6272 154.27C68.7911 150.615 67.0133 147.638 63.1401 143.411C60.1982 140.201 56.6002 135.2 55.1292 132.287C53.6583 129.373 51.8275 124.606 51.0444 121.693C50.2719 118.779 49.6264 114.012 49.6264 111.098C49.6264 108.185 50.2719 103.418 51.0444 100.504C51.8275 97.5908 53.7958 92.5903 55.4361 89.3802C57.0658 86.1702 60.8332 81.1485 63.7962 78.2139C66.7593 75.2687 71.3309 71.3912 73.9448 69.6008C76.5586 67.8104 82.9928 64.166 88.2311 61.5068C93.4694 58.8477 102.285 55.2244 107.809 53.4552C113.333 51.6965 121.915 49.3234 126.857 48.1899C131.809 47.0669 141.566 45.3824 148.551 44.4501Z" fill="#FDBD49"/>
</svg>
